# xmcd
# 
# Track frame offsets:
#     150
#     14979
#     34664
#     48213
#     62193
#     78566
#     95411
#     112451
#     127039
#     150605
#     171130
#     183493
#     197596
#     216043
#     229845
#     242801
#     259496
#     274831
#     288368
# 
# Disc length: 3998
# 
# Revision: 1
# Processed by: cddbd v1.5.2PL0 Copyright (c) Steve Scherf et al.
# Submitted via: fre:ac v1.1beta2
# 
DISCID=220f9c13
DTITLE=Various Artist - Livemusiken från Jills veranda
DYEAR=2014
DGENRE=Country
TTITLE0=Jill Johnson, Doug Seegers - Going Down To The River
TTITLE1=Jill Johnson, Titiyo - Color Him Father
TTITLE2=Jill Johnson, Titiyo - Orphan Girl
TTITLE3=Jill Johnson, Kakan Hermansson - Red Dirt Girl
TTITLE4=Jill Johnson, Kakan Hermansson - Not Ready To Make Nice
TTITLE5=Jill Johnson - Du
TTITLE6=Jill Johnson, Rikard "Skizz" Bizzi - Jolene
TTITLE7=Jill Johnson, Rikard "Skizz" Bizzi - Crazy Girl
TTITLE8=Jill Johnson, Marit Bergman - Will The Circle Be Unbroken
TTITLE9=Pam Rose, Lisa Carver - Never You
TTITLE10=Jill Johnson, Kristian Gidlund - Blue Eyes Crying In The Rain
TTITLE11=Jill Johnson, Kristian Gidlund - Follow The Lights
TTITLE12=Jill Johnson, Magnus Carlson - Always On My Mind
TTITLE13=Jill Johnson, Magnus Carlson - Sleepless Nights
TTITLE14=Jill Johnson, Kristian Gidlund - Night Flyer
TTITLE15=Jill Johnson - Legacy
TTITLE16=Doug Seegers, Jill Johnson, Magnus Carlson - Going Down To The River
TTITLE17=Jill Johnson, Magnus Carlson - Crying Time
TTITLE18=Doug Seegers - Gotta Catch That Train
EXTD=
EXTT0=
EXTT1=
EXTT2=
EXTT3=
EXTT4=
EXTT5=
EXTT6=
EXTT7=
EXTT8=
EXTT9=
EXTT10=
EXTT11=
EXTT12=
EXTT13=
EXTT14=
EXTT15=
EXTT16=
EXTT17=
EXTT18=
PLAYORDER=
